<?xml version="1.0" standalone="no"?>
<!DOCTYPE svg PUBLIC "-//W3C//DTD SVG 20010904//EN"
 "http://www.w3.org/TR/2001/REC-SVG-20010904/DTD/svg10.dtd">
<svg version="1.0" xmlns="http://www.w3.org/2000/svg"
 width="700.000000pt" height="700.000000pt" viewBox="0 0 700.000000 700.000000"
 preserveAspectRatio="xMidYMid meet">
<metadata>
Created by potrace 1.14, written by Peter Selinger 2001-2017
</metadata>
<g transform="translate(0.000000,700.000000) scale(0.100000,-0.100000)"
fill="#000000" stroke="none">
<path d="M5455 6761 c-33 -9 -76 -26 -95 -36 -33 -17 -1125 -645 -1193 -685
-17 -11 -53 -31 -78 -44 -144 -78 -237 -185 -287 -332 -41 -119 -34 -225 22
-364 24 -58 125 -252 183 -352 16 -26 59 -102 98 -170 38 -68 74 -131 80 -141
212 -370 366 -604 439 -667 148 -127 395 -152 581 -57 22 11 123 68 225 127
102 58 383 221 625 360 242 139 467 272 501 296 148 104 228 271 220 458 -6
130 -24 178 -136 371 -29 50 -62 106 -72 125 -122 213 -507 874 -529 906 -55
81 -146 149 -258 191 -87 34 -236 40 -326 14z"/>
<path d="M3275 5159 c-35 -8 -68 -22 -110 -47 -16 -10 -50 -30 -75 -44 -64
-36 -607 -349 -715 -412 -49 -29 -160 -93 -245 -141 -190 -109 -271 -183 -325
-296 -19 -41 -39 -98 -45 -128 -27 -146 -9 -198 198 -561 249 -438 331 -554
422 -600 50 -26 141 -48 220 -55 31 -2 31 0 -20 -110 -23 -50 -69 -148 -102
-220 -103 -222 -164 -354 -218 -470 -23 -49 -77 -166 -120 -260 -126 -274
-135 -295 -189 -408 -28 -60 -51 -110 -51 -112 0 -2 -25 -56 -56 -121 -31 -66
-114 -246 -186 -401 -116 -252 -129 -288 -129 -337 0 -183 212 -282 354 -165
38 31 51 56 150 269 14 31 45 96 68 145 39 86 61 133 124 270 66 145 141 306
178 385 22 47 65 141 97 210 31 69 73 159 92 200 19 41 47 100 61 132 27 59
294 636 402 868 34 74 86 187 115 250 67 145 72 152 117 177 21 11 86 48 146
83 59 34 113 60 120 57 13 -5 63 -104 807 -1582 265 -528 495 -976 510 -995
57 -74 150 -101 240 -69 94 33 143 103 144 204 0 65 4 57 -1109 2260 -111 220
-200 406 -198 412 3 7 34 30 71 50 121 68 171 145 160 248 -6 48 -7 49 -405
740 -313 542 -301 523 -356 551 -38 20 -106 31 -142 23z"/>
<path d="M1195 3672 c-22 -10 -185 -103 -362 -205 -177 -103 -327 -187 -332
-187 -6 0 -11 -4 -11 -9 0 -5 -10 -13 -22 -17 -12 -3 -51 -36 -87 -73 -115
-115 -170 -265 -158 -426 8 -94 30 -157 97 -278 101 -184 230 -290 395 -326
17 -3 77 -6 135 -5 98 0 111 3 185 35 116 51 770 432 799 466 39 44 59 105 54
166 -4 45 -21 82 -128 267 -67 118 -134 232 -147 252 -12 21 -23 40 -23 42 0
2 -27 50 -60 105 -33 56 -60 103 -60 106 0 12 -38 49 -74 72 -54 35 -145 41
-201 15z"/>
</g>
</svg>
